<svg xmlns="http://www.w3.org/2000/svg" viewBox="0 0 24 24">
  <path
     class="nostro"
     d="m 21.219688,10.632199 v 9.782376 c 0,0.36788 -0.298537,0.666422 -0.666421,0.666422 h -7.997031 c -0.367884,0 -0.666422,-0.298542 -0.666422,-0.666422 v -1.82178 c 0.03645,-2.233152 0.272682,-4.372276 0.768675,-5.34546 0.297363,-0.58532 0.78748,-0.903839 1.350469,-1.074263 1.063686,-0.319694 2.93013,-0.10108 3.722312,-0.138691 0,0 2.392997,0.09521 2.392997,-1.259967 0,-1.0907187 -1.069562,-1.0049187 -1.069562,-1.0049187 -1.178867,0.03055 -2.076831,-0.04937 -2.658626,-0.278557 C 15.421721,9.1077763 15.388811,8.4049219 15.385285,8.1698534 15.337094,5.4548117 11.333878,5.1292411 7.8066742,5.8027121 3.9503743,6.536127 7.8489842,12.063765 7.8489842,19.44257 v 0.984936 c -0.00706,0.362004 -0.299712,0.654662 -0.6640682,0.654662 h -3.95973 c -0.3678829,0 -0.6664195,-0.298534 -0.6664195,-0.666415 V 3.4966903 c 0,-0.3678822 0.2985366,-0.6664194 0.6664195,-0.6664194 h 3.7223109 c 0.3678822,0 0.6664189,0.2985372 0.6664189,0.6664194 0,0.546534 0.6147044,0.8509478 1.0589839,0.5324305 1.3387143,-0.9590801 3.0570663,-1.4703543 4.9799263,-1.4703543 4.307633,0 7.564508,2.5105327 7.564508,8.0734325 z M 14.068901,8.6470424 c 0,-0.7874805 -0.638211,-1.4256909 -1.425691,-1.4256909 -0.787479,0 -1.425692,0.6382104 -1.425692,1.4256909 0,0.7874809 0.638213,1.4256916 1.425692,1.4256916 0.78748,0 1.425691,-0.6382107 1.425691,-1.4256916 z"
     id="nostr"
     style="fill:currentColor;fill-opacity:1;stroke-width:0.5" />
</svg>
